HIERARCHY
ROOT pelvis
{
  OFFSET 0 100 0
  CHANNELS 6 Xposition Yposition Zposition Zrotation Xrotation Yrotation
  JOINT pelvis_right_femur
  {
    OFFSET -10.78128 -3.44521 -0.5502486
    CHANNELS 3 Zrotation Xrotation Yrotation
    JOINT right_femur_tibia
    {
      OFFSET -0.8047443 -44.0398 -0.1307829
      CHANNELS 3 Zrotation Xrotation Yrotation
      JOINT right_tibia_foot
      {
        OFFSET 3.006224 -47.83518 -5
        CHANNELS 3 Zrotation Xrotation Yrotation
        End Site
        {
          OFFSET 0 -5 15
        }
      }
    }
  }
  JOINT pelvis_left_femur
  {
    OFFSET 10.78128 -3.44521 -0.5502486
    CHANNELS 3 Zrotation Xrotation Yrotation
    JOINT left_femur_tibia
    {
      OFFSET 0.8047443 -44.0398 -0.1307829
      CHANNELS 3 Zrotation Xrotation Yrotation
      JOINT left_tibia_foot
      {
        OFFSET -4.370144 -48.10324 -4.275266
        CHANNELS 3 Zrotation Xrotation Yrotation
        End Site
        {
          OFFSET 0 -5 15
        }
      }
    }
  }
  JOINT pelvis_spine1
  {
    OFFSET 0 6.468898 -3.129235
    CHANNELS 3 Zrotation Xrotation Yrotation
    JOINT spine1
    {
      OFFSET 0 23.15396 4.99043
      CHANNELS 3 Zrotation Xrotation Yrotation
      JOINT spine2
      {
        OFFSET 0 20.79997 -5.064912
        CHANNELS 3 Zrotation Xrotation Yrotation
        JOINT neck
        {
          OFFSET 0 14.38658 9.616178
          CHANNELS 3 Zrotation Xrotation Yrotation
          End Site
          {
            OFFSET 0 20 0
          }
        }
      }
      JOINT right_manubrium
      {
        OFFSET -5.722621 16.35077 3.967754
        CHANNELS 3 Zrotation Xrotation Yrotation
        JOINT right_clavicle
        {
          OFFSET -13.16364 1.694482 -4.693211
          CHANNELS 3 Zrotation Xrotation Yrotation
          JOINT right_humerus
          {
            OFFSET -28.5034 -0.3100689 -2.792744
            CHANNELS 3 Zrotation Xrotation Yrotation
            JOINT right_radius
            {
              OFFSET -25.15693 0.02248979 -1.271978
              CHANNELS 3 Zrotation Xrotation Yrotation
              End Site
              {
                OFFSET -15 0 0
              }
            }
          }
        }
      }
      JOINT left_manubrium
      {
        OFFSET 5.722621 16.35077 3.967754
        CHANNELS 3 Zrotation Xrotation Yrotation
        JOINT left_clavicle
        {
          OFFSET 13.16364 1.694482 -4.693211
          CHANNELS 3 Zrotation Xrotation Yrotation
          JOINT left_humerus
          {
            OFFSET 29.39168 -1.063119 -2.237045
            CHANNELS 3 Zrotation Xrotation Yrotation
            JOINT left_radius
            {
              OFFSET 24.59957 -0.9528479 0.9047498
              CHANNELS 3 Zrotation Xrotation Yrotation
              End Site
              {
                OFFSET 15 -0 -0
              }
            }
          }
        }
      }
    }
  }
}
MOTION
Frames: 13
Frame Time: 0.0416666666667
0 103.5113 0 1.09265 -0.3140678 -0.2554354 3.817811 -15.8584 10.25913 -0 38.98878 -0 -4.718884 -18.98027 -2.726639 -7.664425 8.812832 -23.34757 -0 5.664348 -0 15.07215 -13.01408 29.03266 -4.339304 -4.019918 4.895054 3.368595 10.18629 -7.781387 1.234306 21.96938 6.4575 2.063704 -25.52247 10.00783 6.671899 -20.36564 12.35293 84.64542 37.00812 -16.79033 -0 0 16.42132 -6.611716 8.616663 5.258384 5.290432 -18.50315 -0.7139377 -92.49139 20.46511 20.64902 0 0 -12.3713 15.13552 14.81391 -4.349708
0.3592231 103.4571 1.402859 0.789653 0.1996326 -0.4500612 4.448359 -18.19934 10.47396 -0 38.29645 -0 -4.952056 -17.99386 -2.728616 -7.451041 9.271266 -23.14229 -0 5.6559 -0 14.70052 -13.6735 29.08217 -4.086709 -3.717877 4.911624 3.185999 10.09999 -7.756009 1.382418 21.75266 6.538866 2.406151 -25.42987 10.06075 6.858093 -20.04575 12.10967 84.69919 37.96001 -17.0965 -0 0 16.23656 -5.914271 8.578477 4.526063 5.842716 -18.90771 -0.6125119 -92.23873 20.863 20.15857 0 0 -13.58097 15.77239 14.57372 -4.679436
0.6731772 103.1878 3.536208 0.3136893 1.413644 -0.4079845 5.543836 -23.42616 9.633411 -0 32.5977 -0 -5.285211 -13.83107 -2.323518 -7.054952 10.53725 -21.54003 -0 5.644275 -0 13.09312 -16.12737 27.60162 -3.563457 -3.199145 4.898322 3.039439 9.981293 -7.823959 1.540091 21.22405 6.699352 2.853341 -25.74174 10.0302 6.299605 -19.68886 11.68761 85.79839 37.60107 -18.73196 -0 0 15.15783 -5.99943 8.348237 4.18023 6.705938 -20.16632 -0.8034624 -91.45819 21.6224 19.31252 0 0 -17.49386 15.26527 13.90622 -3.377973
0.9448151 102.7215 6.128392 0.07120991 1.826712 -0.2161358 5.876655 -25.88083 8.693984 -0 28.8945 -0 -5.572286 -11.16048 -2.207097 -6.78329 11.54845 -20.46919 -0 5.954422 -0 11.35889 -17.82148 26.107 -3.259421 -2.938251 4.718436 2.992551 9.816863 -7.874508 1.601278 21.11749 6.807517 2.987163 -25.88913 10.00766 5.671552 -19.45039 11.44529 86.76659 36.55188 -19.9574 -0 0 14.17032 -6.76089 8.406365 4.451535 6.890483 -20.86665 -1.105778 -91.10456 22.83102 18.99176 0 0 -19.91164 13.55145 14.06065 -0.9793334
1.169777 102.0773 9.211333 -0.1616589 2.065556 0.110179 6.012976 -27.8999 7.454253 -0 25.02063 -0 -5.919828 -8.468663 -2.140772 -6.475798 12.67601 -19.29493 -0 6.564448 -0 9.242977 -19.45016 24.17696 -2.947995 -2.711036 4.414098 2.991375 9.596651 -7.927277 1.644011 21.13719 6.895172 3.001869 -26.02749 9.988945 4.871168 -19.16866 11.22943 87.84203 35.00658 -21.18276 -0 0 12.9564 -7.950209 8.596827 5.03371 6.852281 -21.48592 -1.508498 -90.75154 24.20742 18.67602 0 0 -22.16663 11.28145 14.39825 2.002335
1.346882 101.3068 12.70359 -0.3975492 2.087661 0.5375989 6.010212 -29.26907 6.288432 -0 22.07193 -0 -6.317502 -6.36899 -2.220401 -6.13077 13.77664 -18.36039 -0 7.412803 -0 6.950609 -20.74229 22.23297 -2.650583 -2.485982 4.0109 2.986564 9.296947 -7.951573 1.695395 21.29792 6.966476 2.967172 -26.03742 9.994133 4.162979 -18.788 11.03303 88.75544 33.56906 -22.14762 -0 0 11.76673 -9.154706 8.909998 5.646751 6.646487 -21.87185 -1.909611 -90.53248 25.82309 18.41119 0 0 -23.81577 8.764089 14.9259 5.210324
1.477235 100.4612 16.58181 -0.6732795 2.030894 1.044379 6.01006 -30.37864 5.213792 -0 19.63558 -0 -6.764526 -4.60899 -2.374704 -5.730424 14.84701 -17.53255 -0 8.593782 -0 4.53173 -21.72384 20.21926 -2.315099 -2.23795 3.545504 2.975537 8.95003 -7.960707 1.760603 21.51088 7.015304 2.911905 -25.97347 10.00743 3.539576 -18.31484 10.84636 89.54765 32.28851 -22.92114 -0 0 10.60411 -10.29148 9.292179 6.23133 6.366002 -22.107 -2.292287 -90.35999 27.46261 18.12444 0 0 -25.058 6.259693 15.44937 8.366843
1.56453 99.59494 20.81847 -0.9975592 1.934039 1.604947 6.071099 -31.26961 4.305404 -0 17.75687 -0 -7.245846 -3.222395 -2.589753 -5.271167 15.82638 -16.82721 -0 10.16768 -0 2.035101 -22.34105 18.18655 -1.925924 -1.956767 3.043322 2.951547 8.566331 -7.955821 1.837484 21.74268 7.043425 2.858284 -25.84009 10.01846 3.0495 -17.75604 10.6723 90.18762 31.2807 -23.49231 -0 0 9.539573 -11.2658 9.723609 6.729426 6.043746 -22.18299 -2.634768 -90.25165 29.06834 17.84582 0 0 -25.86519 3.874858 15.92329 11.35048
1.614556 98.76841 25.40267 -1.382787 1.836986 2.190273 6.251971 -31.97934 3.588767 -0 16.33784 -0 -7.75821 -2.172288 -2.834511 -4.750159 16.64901 -16.19491 -0 12.31579 -0 -0.4792166 -22.51192 16.13555 -1.454649 -1.644097 2.531848 2.914766 8.173222 -7.942623 1.920379 21.95699 7.045388 2.810699 -25.65919 10.01372 2.699814 -17.12876 10.51845 90.68495 30.57349 -23.87423 -0 0 8.599889 -12.04467 10.19458 7.124502 5.702436 -22.11598 -2.925347 -90.18574 30.50087 17.5806 0 0 -26.2498 1.763227 16.30521 13.98583
1.636359 98.05412 30.32455 -1.831841 1.754769 2.761393 6.593917 -32.41944 3.109308 -0 15.39518 -0 -8.292628 -1.502492 -3.084734 -4.175932 17.19184 -15.61529 -0 15.28313 -0 -2.917077 -22.1059 14.11803 -0.8802182 -1.309928 2.052132 2.86187 7.80513 -7.922012 1.999873 22.1278 7.01816 2.772452 -25.44324 9.980083 2.511852 -16.46215 10.39854 91.03201 30.21782 -24.05848 -0 0 7.835873 -12.59197 10.70411 7.399342 5.35267 -21.9068 -3.146787 -90.16941 31.62886 17.37348 0 0 -26.17237 0.07674977 16.58656 16.09954
1.643671 97.54127 35.56852 -2.328646 1.677448 3.264574 7.105957 -32.36919 2.896441 -0 14.96446 -0 -8.835438 -1.292758 -3.311307 -3.578036 17.25457 -15.06089 -0 19.41794 -0 -5.138559 -20.95564 12.22322 -0.1938524 -0.9768168 1.670727 2.78683 7.514057 -7.888986 2.062039 22.23973 6.958864 2.740748 -25.20187 9.903198 2.496881 -15.80731 10.33342 91.22653 30.24319 -24.03378 -0 0 7.298714 -12.90243 11.25466 7.555116 4.994905 -21.56498 -3.280706 -90.2183 32.29961 17.29508 0 0 -25.59443 -1.02327 16.76873 17.51208
1.656768 97.33237 41.09708 -2.813783 1.563105 3.629901 7.716006 -31.43724 2.930649 -0 15.07409 -0 -9.354813 -1.658253 -3.476268 -3.02266 16.52449 -14.50391 -0 25.08574 -0 -6.977691 -18.91482 10.57866 0.5738955 -0.6761587 1.49332 2.678519 7.365431 -7.82668 2.085455 22.2955 6.871067 2.713686 -24.93775 9.764582 2.654 -15.24798 10.35143 91.26274 30.6535 -23.79034 -0 0 7.048928 -13.01892 11.83931 7.61892 4.62081 -21.11732 -3.311476 -90.37011 32.39383 17.46126 0 0 -24.51916 -1.438655 16.83917 18.12381
1.701752 97.52241 46.83484 -3.163436 1.341814 3.782865 8.221533 -29.11949 3.086535 -0 15.62417 -0 -9.793622 -2.68838 -3.52664 -2.614276 14.58545 -13.90368 -0 32.47247 -0 -8.297477 -15.97355 9.305864 1.321003 -0.4342676 1.66034 2.520608 7.421361 -7.700878 2.043509 22.32316 6.766944 2.695698 -24.64384 9.539158 2.953407 -14.89643 10.4826 91.12854 31.40202 -23.32965 -0 0 7.138049 -13.06636 12.42877 7.659039 4.221173 -20.6271 -3.236859 -90.65685 31.8895 17.99658 0 0 -23.07732 -1.215158 16.74523 18.00738
